<?xml version="1.0" encoding="UTF-8"?>
<svg width="280px" height="280px" viewBox="0 0 280 280" version="1.1" xmlns="http://www.w3.org/2000/svg" xmlns:xlink="http://www.w3.org/1999/xlink">
    <title>Fogaça Consultoria</title>
    <defs>
        <linearGradient x1="0%" y1="0%" x2="100%" y2="100%" id="logoGradient">
            <stop stop-color="#e74c3c" offset="0%"></stop>
            <stop stop-color="#c0392b" offset="100%"></stop>
        </linearGradient>
    </defs>
    <g id="Logo-Circle" stroke="none" stroke-width="1" fill="none" fill-rule="evenodd">
        <circle id="Background" fill="#1A1A1A" cx="140" cy="140" r="140"></circle>
        <path d="M140,20 C207.3197,20 262,74.6803 262,142 C262,209.3197 207.3197,264 140,264 C72.6803,264 18,209.3197 18,142 C18,74.6803 72.6803,20 140,20 Z" id="Circle-Inner" stroke="#E74C3C" stroke-width="4"></path>
        <g id="Logo-Content" transform="translate(40.000000, 84.000000)">
            <path d="M60,0 C93.137,0 120,26.863 120,60 C120,93.137 93.137,120 60,120 C26.863,120 0,93.137 0,60 C0,26.863 26.863,0 60,0 Z" id="Circle-Red" fill="url(#logoGradient)"></path>
            <path d="M74.1966,27.4392 L110.1966,57.4392 C111.0381,58.1619 111.1008,59.4835 110.3355,60.2787 L74.3355,97.2787 C73.4834,98.1713 72.0193,98.1137 71.2505,97.1575 C70.5558,96.3045 70.7263,95.0571 72.0179,93.8922 L104.5607,60 L72.0179,26.1078 C70.7263,24.9429 70.5558,23.6955 71.2505,22.8425 C72.0193,21.8863 73.4834,21.8287 74.3355,22.7213 L74.1966,27.4392 Z" id="Arrow" fill="#FFFFFF" fill-rule="nonzero"></path>
            <path d="M30,22 L75,22 C76.6569,22 78,23.3431 78,25 C78,26.6569 76.6569,28 75,28 L36,28 L36,92 L75,92 C76.6569,92 78,93.3431 78,95 C78,96.6569 76.6569,98 75,98 L30,98 C28.3431,98 27,96.6569 27,95 L27,25 C27,23.3431 28.3431,22 30,22 Z" id="F-Shape" fill="#FFFFFF" fill-rule="nonzero"></path>
            <polygon id="Line" fill="#FFFFFF" points="54 46 90 46 90 52 54 52"></polygon>
            <polygon id="Line-Copy" fill="#FFFFFF" points="54 66 78 66 78 72 54 72"></polygon>
        </g>
        <text id="FOGAÇA" font-family="Poppins-Bold, Poppins" font-size="30" font-weight="bold" fill="#FFFFFF">
            <tspan x="80" y="220">FOGAÇA</tspan>
        </text>
        <text id="Gestão-empresarial" font-family="Poppins-Light, Poppins" font-size="14" font-weight="300" fill="#CCCCCC">
            <tspan x="86" y="240">Gestão empresarial</tspan>
        </text>
    </g>
</svg> 